<svg width="24" height="24" fill="none" xmlns="http://www.w3.org/2000/svg"><path fill-rule="evenodd" clip-rule="evenodd" d="M15.2778 12.0278c-.8667 0-1.7334-.1445-2.6-.4334-.2167-.0722-.5056 0-.7222.1445l-1.5889 1.5889C8.34444 12.3167 6.68333 10.5833 5.6 8.56111l1.58889-1.58889c.21667-.21666.28889-.50555.14444-.72222-.21666-.79444-.36111-1.66111-.36111-2.52778C6.97222 3.28889 6.68333 3 6.25 3H3.72222C3.28889 3 3 3.28889 3 3.72222 3 10.5111 8.48889 16 15.2778 16c.4333 0 .7222-.2889.7222-.7222V12.75c0-.4333-.2889-.7222-.7222-.7222ZM14.5556 9.5H16C16 5.88889 13.1111 3 9.5 3v1.44444c2.8167 0 5.0556 2.23889 5.0556 5.05556Zm-2.8889 0h1.4444c0-2.02222-1.5889-3.61111-3.6111-3.61111v1.44444c1.2278 0 2.1667.93889 2.1667 2.16667Z" fill="#fff"/></svg>