<svg width="53" height="69" fill="none" xmlns="http://www.w3.org/2000/svg"><path clip-rule="evenodd" d="m33.4637 28.2318-9.4081 9.5954-6.9216-7.0594-3.4608 3.5297 10.3824 10.5892 15.8512-16.1661-3.4616-3.5297-2.9815 3.0409Z" stroke="#62E0D9" stroke-width="2.35679"/><path clip-rule="evenodd" d="M43.6279 8.4999c-4.1098 0-8.1949-.87361-11.9094-2.67964-1.779-.85681-3.5991-1.94882-5.1722-3.30964-1.5731 1.36082-3.3933 2.45283-5.1731 3.30964C17.6595 7.62629 13.5744 8.4999 9.4646 8.4999H1.31909v31.2232c0 5.4685 2.1661 10.727 6.01977 14.533C12.9979 59.833 26.5463 67.0823 26.5463 67.0823s13.5484-7.2493 19.2066-12.8262c3.8545-3.806 6.0205-9.0645 6.0205-14.533V8.4999h-8.1455Z" stroke="#62E0D9" stroke-width="2.35679"/><path clip-rule="evenodd" d="M45.1846 19.7938v20.1914c0 3.6481-1.4636 7.1854-4.0143 9.7038-3.5481 3.4978-11.6368 8.2842-14.6232 9.9995-2.9897-1.717-11.085-6.5093-14.629-10.002-2.54906-2.5176-4.01014-6.0532-4.01014-9.7013V15.482h1.55662c5.15912 0 10.25722-1.1524 14.74342-3.3331.8047-.3873 1.5904-.8031 2.3391-1.2382.7478.4343 1.5385.8535 2.3563 1.2483 4.4731 2.1739 9.5646 3.323 14.7245 3.323h1.5567v4.3118Z" stroke="#62E0D9" stroke-width="2.35679"/></svg>