<svg width="176" height="52" fill="none" xmlns="http://www.w3.org/2000/svg"><path fill-rule="evenodd" clip-rule="evenodd" d="M0 16.3715v.1283l29.754 13.764L59.6129 16.453v-.0347L29.754 2.60806 0 16.3715Zm10.7268.0645 19.0278-8.8018 19.0297 8.8018-19.0303 8.801-19.0272-8.801ZM29.754 35.6097 0 22.0518v5.0146l29.754 13.589 29.8589-13.6352V22.005L29.754 35.6097Zm0 10.1703L0 32.2209v5.0146l29.754 13.5907 29.8589-13.6369v-5.0146L29.754 45.78ZM169.216 26.2208c0-1.1628-.204-2.2471-.612-3.2528-.409-1.0056-.966-1.8856-1.673-2.6399-.706-.7543-1.531-1.3435-2.473-1.7678-.942-.4243-1.947-.6364-3.015-.6364s-2.073.2121-3.015.6364c-.942.4243-1.767 1.0135-2.473 1.7678-.707.7543-1.264 1.6343-1.673 2.6399-.408 1.0057-.612 2.09-.612 3.2528 0 1.1629.204 2.2471.612 3.2528.409 1.0057.966 1.8857 1.673 2.64.706.7542 1.531 1.3435 2.473 1.7678.942.4243 1.947.6364 3.015.6364s2.073-.2121 3.015-.6364c.942-.4243 1.767-1.0136 2.473-1.7678.707-.7543 1.264-1.6343 1.673-2.64.408-1.0057.612-2.0899.612-3.2528Zm6.784 0c0 2.0429-.377 3.9364-1.131 5.6806-.753 1.7442-1.79 3.2528-3.109 4.5256-1.319 1.2728-2.866 2.2785-4.64 3.0171-1.775.7386-3.667 1.1078-5.677 1.1078s-3.894-.3692-5.653-1.1078c-1.759-.7386-3.298-1.752-4.617-3.0406s-2.355-2.8049-3.109-4.5492c-.754-1.7442-1.131-3.6221-1.131-5.6335 0-1.9799.385-3.842 1.154-5.5863.77-1.7442 1.814-3.2685 3.133-4.5727 1.319-1.3043 2.858-2.3257 4.617-3.0642 1.759-.7386 3.627-1.1079 5.606-1.1079 2.01 0 3.902.3693 5.677 1.1079 1.774.7385 3.321 1.7442 4.64 3.017 1.319 1.2729 2.356 2.7893 3.109 4.5492.754 1.76 1.131 3.6457 1.131 5.657Zm-31.422 13.4826c-.534.2514-1.139.4557-1.814.6128-.675.1572-1.374.2357-2.096.2357-1.005 0-1.971-.1335-2.898-.4006-.926-.2672-1.735-.6993-2.426-1.2964-.691-.5971-1.24-1.3751-1.649-2.3336-.408-.9585-.612-2.1135-.612-3.4649V.71714h6.925V31.8779c0 1.1313.228 1.9092.683 2.3335.456.4243.997.6364 1.625.6364.786 0 1.539-.2357 2.262-.7071v5.5627Zm-14.557-27.1537-12.249 32.3865c-.911 2.4199-2.104 4.1641-3.58 5.2327-1.476 1.0685-3.235 1.6028-5.277 1.6028-.314 0-.659-.0235-1.036-.0707s-.738-.1178-1.083-.2121l-2.262-6.317c.534.2514 1.084.4478 1.649.5892.565.1414 1.099.2122 1.602.2122 1.068 0 2.041-.2436 2.921-.7307.879-.4871 1.554-1.3907 2.025-2.7107l.943-2.7342-10.506-27.248h7.396l6.266 17.5367 5.889-17.5367h7.302Zm-28.502-4.10131H83.8059v8.76831h17.4781v5.9399H83.8059v16.6882h-7.1607V2.1785h24.8738v6.26989Z" fill="#fff"/></svg>