<svg width="80" height="24" fill="none" xmlns="http://www.w3.org/2000/svg"><path fill-rule="evenodd" clip-rule="evenodd" d="M0 7.55609v.0592l13.5246 6.35261 13.5722-6.37423v-.016L13.5246 1.20372 0 7.55609Zm4.87581.02975 8.64899-4.06236 8.6499 4.06236-8.6501 4.06206-8.64879-4.06206Zm8.64879 8.84946L0 10.1778v2.3144l13.5246 6.2718 13.5722-6.2931v-2.3147l-13.5722 6.2791Zm0 4.694L0 14.8712v2.3144l13.5246 6.2727 13.5722-6.294v-2.3145l-13.5722 6.2795ZM76.9165 12.1019c0-.5367-.0928-1.0371-.2784-1.5013-.1856-.4641-.439-.87025-.7602-1.21838-.3212-.34814-.6959-.62011-1.1242-.81592-.4283-.19581-.8851-.29373-1.3705-.29373-.4853 0-.9422.09792-1.3704.29373-.4283.19581-.8031.46778-1.1242.81592-.3213.34813-.5747.75428-.7602 1.21838-.1856.4642-.2784.9646-.2784 1.5013 0 .5367.0928 1.0372.2784 1.5013.1855.4642.4389.8703.7602 1.2184.3211.3482.6959.6202 1.1242.816.4282.1958.8851.2937 1.3704.2937.4854 0 .9422-.0979 1.3705-.2937.4283-.1958.803-.4678 1.1242-.816.3212-.3481.5746-.7542.7602-1.2184.1856-.4641.2784-.9646.2784-1.5013Zm3.0835 0c0 .9429-.1713 1.8168-.5139 2.6218-.3426.8051-.8137 1.5013-1.4133 2.0888-.5996.5874-1.3026 1.0516-2.1092 1.3925-.8066.3408-1.6667.5113-2.5804.5113-.9136 0-1.7702-.1705-2.5696-.5113-.7994-.3409-1.499-.8087-2.0985-1.4034-.5996-.5947-1.0707-1.2946-1.4133-2.0996-.3426-.805-.514-1.6717-.514-2.6001 0-.9138.1749-1.7732.5247-2.57827.3497-.80504.8244-1.50854 1.424-2.1105.5995-.60197 1.2991-1.07337 2.0985-1.41425.7994-.34086 1.6488-.51131 2.5482-.51131.9137 0 1.7738.17045 2.5804.51131.8066.34088 1.5096.80503 2.1092 1.39249.5996.58747 1.0707 1.28734 1.4133 2.09962.3426.81231.5139 1.68261.5139 2.61091Zm-14.2828 6.2227c-.2427.1161-.5175.2104-.8244.2829-.307.0725-.6246.1088-.953.1088-.4568 0-.8958-.0617-1.3169-.1849-.4211-.1233-.7887-.3228-1.1028-.5984-.3141-.2756-.5639-.6346-.7495-1.077-.1856-.4424-.2784-.9755-.2784-1.5992V.330994H63.64V14.7129c0 .5221.1035.8811.3105 1.077.2071.1958.4533.2937.7388.2937.3569 0 .6995-.1088 1.0279-.3264v2.5675-.0001ZM59.1003 5.79219 53.5328 20.7398c-.414 1.1169-.9565 1.9219-1.6274 2.4151-.671.4932-1.4704.7397-2.3983.7397-.1428 0-.2998-.0108-.4711-.0326-.1714-.0218-.3355-.0544-.4925-.0979l-1.0279-2.9155c.2427.116.4925.2066.7495.2719.2569.0653.4996.0979.728.0979.4854 0 .928-.1124 1.3277-.3372.3997-.2248.7066-.6419.9208-1.2511l.4282-1.2619-4.7752-12.57601h3.3619l2.848 8.09391 2.6767-8.09391h3.3191ZM46.1451 3.89926h-8.0515V7.9462h7.9445v2.7415h-7.9445v7.7022h-3.2549V1.00547h11.3064v2.89379Z" fill="#fff"/></svg>