<svg width="80" height="80" fill="none" xmlns="http://www.w3.org/2000/svg"><path fill-rule="evenodd" clip-rule="evenodd" d="M11.1352 51.8968h54.7059v-6.1409H11.1352v6.1409ZM49.0099 61.11h3.0334v2.7146H24.9329V61.11h3.0326c.5042 0 .9117-.4069.9117-.9103v-6.4823h19.2209v6.4823c0 .5034.4085.9103.9118.9103ZM11.1352 43.9353h54.7059V13.0396H11.1352v30.8957Zm-.9118-32.7163c-.5042 0-.91175.4069-.91175.9103v40.6778c0 .5034.40755.9103.91175.9103h16.8303v5.572h-3.0325c-.5043 0-.9118.4087-.9118.9103v4.5352c0 .5015.4075.9103.9118.9103h28.9339c.5033 0 .9118-.4088.9118-.9103v-4.5352c0-.5016-.4085-.9103-.9118-.9103h-3.0334v-5.572h16.8312c.5032 0 .9117-.4069.9117-.9103V12.1293c0-.5034-.4085-.9103-.9117-.9103H10.2234Z" fill="#62E0D9"/><path fill-rule="evenodd" clip-rule="evenodd" d="M37.2399 47.6312c-.5031 0-.9118.408-.9118.9103s.4087.9103.9118.9103c.5031 0 .9118-.408.9118-.9103s-.4087-.9103-.9118-.9103Z" fill="#62E0D9"/><rect x="52.4593" y="29.146" width="19.7082" height="40.6115" rx="1.26244" fill="#1B2330" stroke="#62E0D9" stroke-width="1.26244"/><path fill="#fff" stroke="#62E0D9" stroke-width=".455152" d="M52.0557 33.2939h20.5154v.455152H52.0557zM52.0557 62.4236h20.5154v.455152H52.0557z"/><path clip-rule="evenodd" d="M61.8576 66.7475c.5035 0 .9117-.4075.9117-.9103 0-.5027-.4082-.9103-.9117-.9103-.5036 0-.9118.4076-.9118.9103 0 .5028.4082.9103.9118.9103Z" stroke="#62E0D9" stroke-width=".776699"/><path fill-rule="evenodd" clip-rule="evenodd" d="M44.1541 23.0529h-.1519l-4.027 1.593-4.5588-1.593-4.2549 1.4413c-.152.0759-.304.1517-.304.3793v11.4547c0 .2276.152.3793.3799.3793h.152l4.027-1.5931 4.5588 1.5931 4.2549-1.4413c.152-.0759.3039-.2276.3039-.3793V23.4322c0-.2276-.1519-.3793-.3799-.3793Zm-4.1789 11.3788-4.5588-1.5361v-8.7048l4.5588 1.5361v8.7048Z" fill="#62E0D9"/><path fill-rule="evenodd" clip-rule="evenodd" d="M32.6811 23.0529c-1.016 0-1.8236.7055-1.8236 1.593 0 1.1834 1.8236 2.9585 1.8236 2.9585s1.8235-1.7751 1.8235-2.9585c0-.8875-.8076-1.593-1.8235-1.593Zm0 2.2758c-.3928 0-.7014-.2782-.7014-.6322s.3086-.6321.7014-.6321c.3927 0 .7013.2781.7013.6321s-.3086.6322-.7013.6322Z" fill="#fff"/></svg>